PathFileType	4	(X/Y/Z)	Static.trc																																																																									
DataRate	CameraRate	NumFrames	NumMarkers	Units	OrigDataRate	OrigDataStartFrame	OrigNumFrames																																																																					
100	100	10	25	mm	100	118	473																																																																					
Frame#	Time	AA			AI			Ant_Sh			CV7			GH			LAH			Lat_Sh			LCAJ			LPH			Post_Sh			RAH			RCAJ			RHLE			RHME			RPH			RUA			SJN			SXS			TS			TV8			centelbow			centpxt8			centijc7			centLPHRPH			ScapulaThoracicContactPt		
		X1	Y1	Z1	X2	Y2	Z2	X3	Y3	Z3	X4	Y4	Z4	X5	Y5	Z5	X6	Y6	Z6	X7	Y7	Z7	X8	Y8	Z8	X9	Y9	Z9	X10	Y10	Z10	X11	Y11	Z11	X12	Y12	Z12	X13	Y13	Z13	X14	Y14	Z14	X15	Y15	Z15	X16	Y16	Z16	X17	Y17	Z17	X18	Y18	Z18	X19	Y19	Z19	X20	Y20	Z20	X21	Y21	Z21	X22	Y22	Z22	X23	Y23	Z23	X24	Y24	Z24	X25	Y25	Z25
																																																																												
119	1.18	-216.7075348	1526.023926	715.5255127	-265.7443848	1355.62439	646.5507813	-103.7963028	1496.452148	722.2504883	-213.6957855	1594.858032	519.1314087	-160.9354248	1493.661011	718.2576904	7.714226723	1772.122437	486.6695557	-164.1373596	1512.367188	751.0024414	-154.9385071	1557.739014	339.1227722	-200.7769623	1725.98999	463.442749	-242.8625641	1489.659058	712.5327148	-5.297986507	1771.639648	581.0170898	-159.0979309	1557.943115	689.5802002	-171.6330872	1232.06604	849.7998657	-114.8442459	1178.114258	755.7730713	-202.681839	1726.554077	579.2283325	-219.5706329	1337.773193	758.0216064	-51.44648743	1505.484741	522.1316528	6.959430218	1332.193726	522.9841309	-268.0926514	1497.438843	604.4212036	-232.4215546	1307.135986	515.9682617	-143.2386665	1205.090149	802.7864685	-112.7310622	1319.664856	519.4761963	-132.5711365	1550.171387	520.6315308	-201.7294006	1726.272034	521.3355408	-250.1815236	1459.695719	655.4991659
120	1.19	-216.7767487	1526.064697	715.5628662	-265.7197266	1355.583862	646.5900269	-103.8466949	1496.445068	722.2696533	-213.714447	1594.827271	519.1339111	-160.9635925	1493.631592	718.2735596	7.809196949	1772.093262	486.7524414	-164.1801453	1512.364746	751.05896	-154.9959106	1557.700806	339.1548157	-200.7200317	1725.868286	463.4575195	-242.8738861	1489.596924	712.5427856	-5.335879803	1771.609497	581.081665	-159.124649	1557.988892	689.585083	-171.5769196	1232.045166	849.8493652	-114.7634277	1178.133545	755.8674927	-202.6851501	1726.558594	579.2279663	-219.5320129	1337.762329	758.0541992	-51.51566696	1505.452148	522.125061	6.945486546	1332.187744	523.0093384	-268.0752258	1497.446899	604.4633179	-232.3805847	1307.104248	515.9952393	-143.1701736	1205.089355	802.858429	-112.7175491	1319.645996	519.5022888	-132.615057	1550.139709	520.6294861	-201.7025909	1726.21344	521.3427429	-250.190567	1459.698486	655.538737
121	1.2	-216.6963959	1526.064697	715.5211182	-265.7572632	1355.566895	646.6174927	-103.8359146	1496.460815	722.2947998	-213.7198486	1594.800659	519.1318359	-160.9680328	1493.643921	718.2981567	7.620920658	1772.096191	486.6125488	-164.1840057	1512.38208	751.0635986	-155.0111389	1557.690552	339.1576538	-200.7568359	1725.875732	463.4296875	-242.9265594	1489.602905	712.5648193	-5.38351965	1771.616455	581.0608521	-159.1329193	1557.953369	689.5871582	-171.5616455	1232.063721	849.9095459	-114.6717377	1178.228149	755.9233398	-202.7232971	1726.566162	579.1964722	-219.5383453	1337.730835	758.0595703	-51.5456543	1505.487427	522.1461182	6.907455444	1332.179077	523.0315552	-268.1173096	1497.4552	604.482605	-232.3465271	1307.061401	516.0324097	-143.1166916	1205.145935	802.9164429	-112.7195358	1319.620239	519.5319824	-132.6327515	1550.144043	520.6389771	-201.7400665	1726.220947	521.3130798	-250.1903229	1459.695597	655.5404053
122	1.21	-216.7688293	1526.021606	715.6107178	-265.7272644	1355.536743	646.6481934	-103.8448563	1496.461304	722.3135376	-213.747757	1594.789307	519.1928101	-161.0118408	1493.639038	718.3065796	7.666095734	1772.075684	486.7002258	-164.2341156	1512.378052	751.0801392	-155.0453339	1557.690796	339.181427	-200.7676544	1725.846558	463.4892883	-242.9221497	1489.595337	712.5653076	-5.383111	1771.616089	581.0617676	-159.2054138	1557.938843	689.6810913	-171.5327454	1232.05481	849.9418335	-114.6433334	1178.233154	755.9042969	-202.8091888	1726.606567	579.1950073	-219.5497742	1337.736938	758.1185303	-51.60505676	1505.471436	522.1691895	6.892185688	1332.175659	523.0517578	-268.0941772	1497.397583	604.5256348	-232.3599701	1307.0354	516.097229	-143.0880394	1205.143982	802.9230652	-112.7338922	1319.60553	519.5744934	-132.6764069	1550.130371	520.6809998	-201.7884216	1726.226562	521.3421478	-250.196757	1459.651978	655.5948486
123	1.22	-216.8159485	1526.036621	715.6369629	-265.7553406	1355.521973	646.6560669	-103.885025	1496.44397	722.3148193	-213.7977905	1594.756104	519.1665649	-161.0546722	1493.620605	718.3197021	7.666282177	1772.075684	486.6999512	-164.2730255	1512.358154	751.1320801	-155.0986328	1557.6604	339.2145691	-200.8140869	1725.808716	463.4632874	-242.9694672	1489.575073	712.5953979	-5.405429363	1771.616821	581.0198975	-159.2104034	1557.895752	689.6801758	-171.5088806	1232.051392	849.9783325	-114.641922	1178.224976	755.9539795	-202.8105927	1726.59021	579.1916504	-219.5496063	1337.737305	758.1185303	-51.58988953	1505.450928	522.1946411	6.817283154	1332.15979	523.0721436	-268.1255798	1497.375488	604.5396729	-232.4062347	1307.015259	516.0707397	-143.0754013	1205.138184	802.966156	-112.7944758	1319.587524	519.5714417	-132.69384	1550.103516	520.680603	-201.8123398	1726.199463	521.3274689	-250.2322896	1459.644694	655.6109009
124	1.23	-216.8453674	1526.044189	715.7078857	-265.781189	1355.525269	646.6794434	-103.9213562	1496.465698	722.3560791	-213.8462219	1594.765137	519.1932373	-161.0921021	1493.614868	718.3439941	7.599699974	1772.047241	486.598999	-164.3278046	1512.322998	751.1572876	-155.1351471	1557.665894	339.2390442	-200.8157501	1725.809082	463.4586487	-242.9810486	1489.53125	712.597168	-5.405028343	1771.616333	581.020874	-159.2478485	1557.885986	689.7053223	-171.5119629	1232.055542	850.0316772	-114.5926895	1178.199951	756.0021362	-202.8171692	1726.561768	579.1947632	-219.5561829	1337.705322	758.1238403	-51.64519119	1505.458496	522.2141113	6.840393543	1332.174438	523.0930176	-268.1777344	1497.338135	604.567749	-232.4187469	1306.969116	516.1307373	-143.0523262	1205.127747	803.0169067	-112.7891767	1319.571777	519.6118774	-132.7457066	1550.111816	520.7036743	-201.8164597	1726.185425	521.3267059	-250.2680969	1459.635864	655.6516927
125	1.24	-216.8734589	1526.013672	715.6669922	-265.7881775	1355.481323	646.6789551	-103.9329605	1496.443359	722.3786621	-213.9096069	1594.727783	519.1824951	-161.092865	1493.608643	718.3689575	7.551124573	1772.000732	486.6303101	-164.3251343	1512.344482	751.2015381	-155.2098236	1557.618164	339.2708435	-200.9031525	1725.778931	463.4577942	-243.0244446	1489.545654	712.6216431	-5.439660072	1771.580444	581.0230103	-159.2969055	1557.866455	689.7354126	-171.5124054	1232.017334	850.0413208	-114.5704193	1178.207275	756.0285645	-202.8942261	1726.609985	579.1867065	-219.5158081	1337.675537	758.1519775	-51.74097443	1505.445435	522.2263184	6.78472805	1332.153931	523.1166382	-268.2125854	1497.321655	604.5939331	-232.4249115	1306.9375	516.1360474	-143.0414124	1205.112305	803.0349426	-112.8200917	1319.545715	519.6263428	-132.8252907	1550.086609	520.7044067	-201.8986893	1726.194458	521.3222504	-250.2914073	1459.60555	655.6466268
126	1.25	-216.9339447	1525.961182	715.7503052	-265.8058167	1355.432251	646.7453003	-103.986145	1496.449707	722.3961182	-213.9285736	1594.704102	519.2493896	-161.2057037	1493.579468	718.4128418	7.589708328	1771.995239	486.6054993	-164.4271851	1512.312256	751.1907349	-155.2666168	1557.585693	339.3015137	-200.9696198	1725.735962	463.5523987	-243.0141296	1489.475708	712.7178345	-5.464795589	1771.630493	580.9923706	-159.2928619	1557.828735	689.7799683	-171.5163574	1232.025391	850.0983276	-114.5925522	1178.232178	756.0742798	-202.8292084	1726.584961	579.2595825	-219.5403595	1337.617554	758.2216187	-51.75266647	1505.466919	522.2457275	6.747338772	1332.156982	523.1096802	-268.2353516	1497.279663	604.6558838	-232.4322052	1306.942993	516.1955566	-143.0544548	1205.128784	803.0863037	-112.8424332	1319.549988	519.6526184	-132.84062	1550.08551	520.7475586	-201.8994141	1726.160461	521.4059906	-250.3250376	1459.557699	655.7171631
127	1.26	-216.9052734	1525.940674	715.7894287	-265.8158264	1355.402832	646.746521	-104.0338516	1496.421265	722.4174194	-213.955368	1594.701782	519.2549438	-161.2479248	1493.568604	718.4242554	7.446351528	1771.977661	486.5536499	-164.4745178	1512.329468	751.2515869	-155.3552399	1557.58374	339.3040771	-201.0939178	1725.766846	463.5205078	-243.0883026	1489.487915	712.7122803	-5.547173023	1771.601685	580.9734497	-159.3597412	1557.822266	689.8088989	-171.5035095	1232.011597	850.1363525	-114.5901184	1178.225708	756.1220703	-202.9117889	1726.58667	579.3052368	-219.5334015	1337.650513	758.2162476	-51.81041718	1505.440063	522.2659302	6.74168396	1332.177979	523.135498	-268.3126221	1497.282715	604.6456299	-232.4784851	1306.922974	516.1690674	-143.046814	1205.118652	803.1292114	-112.8684006	1319.550476	519.6522827	-132.8828926	1550.070923	520.760437	-202.0028534	1726.176758	521.4128723	-250.344574	1459.542074	655.7271932
128	1.27	-216.958252	1525.900024	715.7635498	-265.8191833	1355.408813	646.803772	-104.0481033	1496.410278	722.4387817	-214.0206909	1594.697266	519.2885132	-161.2481995	1493.563354	718.4630127	7.419591427	1771.979736	486.5976257	-164.4628296	1512.31189	751.2871704	-155.3925629	1557.588989	339.329834	-201.1541595	1725.753052	463.6055908	-243.1066437	1489.489136	712.7733765	-5.543288708	1771.551147	580.9647217	-159.4437256	1557.847656	689.8182373	-171.4888	1232.013306	850.1485596	-114.5603104	1178.227295	756.1170654	-202.9745789	1726.57605	579.340271	-219.5830688	1337.668335	758.2426147	-51.95476532	1505.443726	522.2954712	6.689700603	1332.167358	523.1538696	-268.3707886	1497.258179	604.7304688	-232.4909821	1306.876831	516.2290649	-143.0245552	1205.1203	803.1328125	-112.9006407	1319.522095	519.6914673	-132.9877281	1550.070496	520.7919922	-202.0643692	1726.164551	521.4729309	-250.3827413	1459.522339	655.7659302
